<?xml version="1.0" standalone="no"?>
<!DOCTYPE svg PUBLIC "-//W3C//DTD SVG 20010904//EN"
 "http://www.w3.org/TR/2001/REC-SVG-20010904/DTD/svg10.dtd">
<svg version="1.0" xmlns="http://www.w3.org/2000/svg"
 width="250.000000pt" height="250.000000pt" viewBox="0 0 250.000000 250.000000"
 preserveAspectRatio="xMidYMid meet">
<metadata>
Created by potrace 1.11, written by Peter Selinger 2001-2013
</metadata>
<g transform="translate(0.000000,250.000000) scale(0.100000,-0.100000)"
fill="#000000" stroke="none">
<path d="M811 1983 c-16 -16 -190 -323 -390 -689 -322 -591 -361 -666 -361
-706 0 -70 15 -78 147 -78 98 0 114 2 144 23 28 18 88 121 334 569 165 301
302 549 305 551 6 6 411 -734 424 -774 6 -21 4 -35 -8 -53 -15 -24 -21 -25
-134 -28 l-117 -3 -67 -135 c-37 -74 -67 -138 -67 -142 -1 -5 171 -8 382 -8
354 0 385 1 417 19 47 24 74 73 74 130 0 42 -32 105 -348 676 -191 347 -359
640 -372 653 -24 21 -33 22 -179 22 l-155 0 -29 -27z"/>
<path d="M1300 2004 c0 -4 33 -67 73 -140 l72 -134 168 0 c167 0 168 0 193
-26 34 -33 30 -46 -62 -215 -41 -75 -74 -142 -74 -149 0 -7 39 -84 87 -171 67
-122 90 -156 99 -146 24 26 428 771 437 807 15 56 -4 112 -50 147 l-36 28
-454 3 c-249 1 -453 0 -453 -4z"/>
<path d="M789 1039 c-112 -205 -210 -391 -218 -415 -12 -35 -12 -48 -1 -73 16
-39 34 -44 164 -39 99 3 106 5 134 31 16 16 70 103 120 195 50 92 97 175 104
185 9 12 34 19 84 25 l71 7 -122 222 c-67 123 -124 225 -127 228 -3 3 -97
-162 -209 -366z"/>
<path d="M2033 1113 c-28 -48 -67 -118 -87 -155 l-37 -67 93 -168 c118 -212
119 -213 273 -213 131 0 145 8 145 81 0 39 -19 76 -163 322 -90 152 -166 280
-169 283 -3 3 -28 -34 -55 -83z"/>
</g>
</svg>
